# xmcd CD database file
#
# Track frame offsets:
#	150
#	14145
#	29782
#	44032
#	60322
#	72075
#	85700
#	100865
#	117597
#	134877
#	151425
#	165760
#	183727
#	204822
#	221955
#	241155
#	252857
#	270275
#	275942
#	295657
#	299902
#
# Disc length: 4154 seconds
#
# Revision: 3
# Processed by: cddbd v1.5.1PL0 Copyright (c) Steve Scherf et al.
# Submitted via: CDex 1.51
#
DISCID=4d103815
DTITLE=Mississippi John Hurt - The Best Of Mississippi John Hurt
DYEAR=1970
DGENRE=Blues
TTITLE0=Here Am I, Oh Lord, Send Me
TTITLE1=I Shall Not Be Moved
TTITLE2=Nearer My God To Thee
TTITLE3=Baby What's Wrong With You
TTITLE4=It Ain't Nobody's Business
TTITLE5=Salty Dog Blues
TTITLE6=Coffee Blues
TTITLE7=Avalon, My Home Town
TTITLE8=Make Me A Pallet On The Floor
TTITLE9=Since I've Laid This Burden Down
TTITLE10=Sliding Delta
TTITLE11=Monday Morning Blues
TTITLE12=Richland Women Blues
TTITLE13=Candy Man
TTITLE14=Stagolee
TTITLE15=My Creole Belle
TTITLE16=C.C. Rider
TTITLE17=Spanish Fandango
TTITLE18=Talking Casey
TTITLE19=Chicken
TTITLE20=You Are My Sunshine
EXTD=Recorded in Concert April 15, 1965 at Oberlin College YEAR: 1970
EXTT0=
EXTT1=
EXTT2=
EXTT3=
EXTT4=
EXTT5=
EXTT6=
EXTT7=
EXTT8=
EXTT9=
EXTT10=
EXTT11=
EXTT12=
EXTT13=
EXTT14=
EXTT15=
EXTT16=
EXTT17=
EXTT18=
EXTT19=
EXTT20=
PLAYORDER=
